<svg width="35" height="30" viewBox="0 0 35 30" fill="none" xmlns="http://www.w3.org/2000/svg">
<path d="M0 6.66667H28V10H0V6.66667Z" fill="#B0B0B0"/>
<path d="M3.5 13.3333H26.25V16.6667H3.5V13.3333Z" fill="#B0B0B0"/>
<path d="M29.75 1.03254e-08H35V3.33333H29.75V1.03254e-08Z" fill="#B0B0B0"/>
<path d="M7 20H24.5L22.75 23.3333H7V20Z" fill="#B0B0B0"/>
<path d="M26.5486 2.75506C26.8842 0.942083 28.6995 -0.268479 30.6031 0.0511981L26.8046 20.568C26.4689 22.381 24.6536 23.5916 22.75 23.2719L26.5486 2.75506Z" fill="#B0B0B0"/>
<path d="M15.75 27.5C15.75 28.8807 14.5747 30 13.125 30C11.6753 30 10.5 28.8807 10.5 27.5C10.5 26.1193 11.6753 25 13.125 25C14.5747 25 15.75 26.1193 15.75 27.5Z" fill="#B0B0B0"/>
<path d="M24.5 27.5C24.5 28.8807 23.3247 30 21.875 30C20.4253 30 19.25 28.8807 19.25 27.5C19.25 26.1193 20.4253 25 21.875 25C23.3247 25 24.5 26.1193 24.5 27.5Z" fill="#B0B0B0"/>
</svg>
