<svg width="270" height="70" viewBox="0 0 270 70" fill="none" xmlns="http://www.w3.org/2000/svg">
<g clip-path="url(#clip0)">
<path d="M208.992 23.8321C208.992 29.5176 211.433 34.6458 215.037 38.1014C218.921 41.8353 224.301 43.8983 230.013 43.8983C235.949 43.8983 241.273 41.7238 245.045 38.1014C248.649 34.6458 251.09 29.5176 251.09 23.8321C251.09 18.1467 248.649 13.0193 245.045 9.56281C241.273 5.9404 235.949 3.76593 230.013 3.76593C224.301 3.76593 218.921 5.82896 215.037 9.56281C211.433 13.0193 208.992 18.1467 208.992 23.8321ZM13.3663 4.32401H0V43.3411H11.7029C17.6383 43.3411 22.0189 43.2296 26.4571 41.2228C33.4455 38.0461 37.7717 31.2454 37.7717 23.6092C37.7717 16.3644 33.8337 10.3438 28.4528 7.2216C24.2384 4.7698 19.3017 4.32401 13.3663 4.32401ZM179.096 4.32401H166.284V43.3411H177.432C183.368 43.3411 187.749 43.2296 192.186 41.2228C199.175 38.0461 203.501 31.2454 203.501 23.6092C203.501 16.3644 199.563 10.3438 194.183 7.2216C189.968 4.7698 185.032 4.32401 179.096 4.32401ZM151.364 43.3411H163.012L148.312 4.32401H134.781L120.081 43.3411H131.729L133.947 36.485H149.146L151.364 43.3411ZM44.2065 43.3411H75.0441V33.698H55.0218V28.1802H70.0523V19.0944H55.0218V13.9662H74.4897V4.32401H44.2065V43.3411ZM82.1436 43.3411H92.9597V28.1802H96.7298L105.772 43.3411H118.418L105.549 23.2204L118.195 4.32401H105.273L96.1211 19.0944H92.9597V4.32401H82.1436V43.3411ZM220.14 23.8321C220.14 21.1013 221.25 18.4819 223.024 16.5864C224.855 14.6349 227.296 13.6319 230.069 13.6319C232.841 13.6319 235.338 14.6349 237.168 16.5864C238.889 18.4257 239.996 20.989 239.996 23.8891C239.996 26.8982 238.777 29.4061 237.168 31.0786C235.338 32.9732 232.898 34.0324 230.123 34.0324C227.296 34.0324 224.8 32.9732 223.024 31.0786C221.194 29.1279 220.14 26.5068 220.14 23.8321ZM10.8161 33.698V13.9662H11.7589C15.8622 13.9662 19.1907 14.0776 21.9095 15.4711C24.5716 16.8093 26.6775 19.3173 26.6775 23.9989C26.6775 28.5137 24.7386 31.0216 21.9638 32.3607C19.3568 33.6419 16.1394 33.698 12.3685 33.698H10.8161ZM177.1 33.698V13.9662H177.489C181.592 13.9662 184.92 14.0776 187.639 15.4711C190.3 16.8093 192.408 19.3173 192.408 23.9989C192.408 28.5137 190.467 31.0216 187.693 32.3607C185.086 33.6419 181.869 33.698 178.098 33.698H177.1ZM141.214 13.9662H141.88L146.206 27.4001H136.887L141.214 13.9662Z" fill="#231F20"/>
<path d="M263.293 0C259.588 0 256.586 3.05327 256.586 6.81776C256.586 10.5839 259.588 13.6355 263.293 13.6355C266.998 13.6355 270 10.5839 270 6.81776C270 3.05327 266.998 0 263.293 0ZM263.293 1.52876C266.161 1.52876 268.496 3.9023 268.496 6.81776C268.496 9.73406 266.161 12.1067 263.293 12.1067C260.424 12.1067 258.09 9.73406 258.09 6.81776C258.09 3.9023 260.424 1.52876 263.293 1.52876Z" fill="#231F20"/>
<path d="M263.349 4.3919H262.286V6.084H263.409C264.039 6.07975 264.469 5.80581 264.483 5.25624C264.494 4.82747 264.199 4.35872 263.349 4.3919ZM266.319 10.37H264.838L262.967 7.3669H262.286V10.37C262.286 10.37 261.439 10.3734 260.883 10.37C260.883 10.37 260.884 3.69089 260.884 3.09453L263.389 3.09793C265.274 3.09793 265.875 4.18772 265.875 5.25879C265.875 6.26606 265.343 7.08361 264.481 7.36775L266.319 10.37Z" fill="#231F20"/>
<path d="M10.8158 35.092H12.3681C16.3069 35.092 19.6345 35.035 22.5747 33.5871C25.7921 32.0822 28.0658 29.1276 28.0658 23.9994C28.0658 18.7044 25.6802 15.8621 22.5179 14.2449C19.4684 12.6846 16.0289 12.5732 11.7594 12.5732H0.000488281V15.361H11.7594C15.6965 15.361 18.9139 15.4708 21.2988 16.6984C23.5174 17.812 25.2927 19.9303 25.2927 23.9994C25.2927 27.7341 23.7947 29.9638 21.3539 31.1344C19.0801 32.2489 15.9746 32.305 12.3681 32.305H10.8158V35.092Z" fill="#F47C20"/>
</g>
<path d="M133.128 62.7277H131.718C131.493 64.7227 130.383 65.8027 128.568 65.8027C126.348 65.8027 124.983 64.1377 124.983 61.4227C124.983 59.1727 126.048 57.0577 128.583 57.0577C130.173 57.0577 131.313 57.8977 131.628 59.2927H133.038C132.828 57.0127 130.713 55.8427 128.613 55.8427C125.328 55.8427 123.558 58.3777 123.558 61.4377C123.558 64.8577 125.463 67.0177 128.508 67.0177C131.148 67.0177 132.888 65.4427 133.128 62.7277ZM141.133 59.0227H135.868L135.733 63.7027C135.688 65.3827 135.118 65.8327 134.608 65.8327C134.443 65.8327 134.098 65.8177 133.933 65.7277V66.7627C134.098 66.8377 134.473 66.9277 134.848 66.9277C135.928 66.9277 136.918 66.1027 136.993 63.5677L137.098 60.1477H139.858V66.7627H141.133V59.0227ZM149.423 59.0227H148.088L145.913 65.1877L143.618 59.0227H142.178L145.253 66.7177L144.653 68.1277C144.503 68.4877 144.173 68.7727 143.753 68.7727C143.528 68.7727 143.333 68.7277 142.928 68.6077V69.7477C143.243 69.8227 143.543 69.8827 143.873 69.8827C145.253 69.8827 145.688 68.8477 146.108 67.7527L149.423 59.0227ZM153.788 63.0127L154.748 63.9877V66.7627H156.023V63.9877L156.983 63.0127L159.638 66.7627H161.213L157.823 62.2027L160.778 59.0227H159.203L156.053 62.5777H156.023V59.0227H154.748V62.5777H154.718L151.568 59.0227H149.993L152.948 62.2027L149.558 66.7627H151.133L153.788 63.0127ZM163.828 66.7627L167.308 60.4477H167.338V66.7627H168.613V59.0227H166.978L163.498 65.3377H163.468V59.0227H162.193V66.7627H163.828ZM176.453 60.1477V59.0227H169.628V60.1477H172.403V66.7627H173.678V60.1477H176.453ZM177.957 65.0977H176.292V66.7627H177.117C177.102 67.5877 176.862 68.0377 176.292 68.2327V68.9827C177.777 68.5927 177.957 67.4527 177.957 66.1177V65.0977ZM191.286 66.7627L187.761 62.0677L190.881 59.0227H189.171L185.631 62.7127V59.0227H184.356V66.7627H185.631V64.1377L186.846 62.9527L189.666 66.7627H191.286ZM198.99 65.7427C198.855 65.7727 198.795 65.7877 198.675 65.7877C198.285 65.7877 198.15 65.5927 198.15 65.0227C198.15 63.8677 198.21 62.7277 198.21 61.5727C198.21 60.8827 198.225 60.0877 197.685 59.5627C197.175 59.0827 196.29 58.8127 195.255 58.8127C193.26 58.8127 192.06 59.7877 192.015 61.4377H193.26C193.38 60.2977 193.995 59.8627 195.18 59.8627C196.32 59.8627 196.935 60.3127 196.935 61.1377C196.935 62.1877 196.305 62.1427 194.46 62.3677C192.63 62.5927 191.715 63.4027 191.715 64.7827C191.715 66.1327 192.66 66.9727 194.19 66.9727C195.39 66.9727 196.23 66.5977 196.995 65.7427C197.01 66.4777 197.4 66.8827 198.12 66.8827C198.405 66.8827 198.72 66.8377 198.99 66.7327V65.7427ZM196.935 62.7427V64.1527C196.935 65.1427 195.78 65.9677 194.58 65.9677C193.62 65.9677 193.035 65.4727 193.035 64.6777C193.035 63.4327 194.295 63.3277 195.225 63.2077C195.795 63.1327 196.455 63.1027 196.935 62.7427ZM207.121 66.7627L203.596 62.0677L206.716 59.0227H205.006L201.466 62.7127V59.0227H200.191V66.7627H201.466V64.1377L202.681 62.9527L205.501 66.7627H207.121ZM213.419 66.7627V63.2227H217.289V66.7627H218.564V59.0227H217.289V62.0977H213.419V59.0227H212.144V66.7627H213.419ZM227.334 65.7427C227.199 65.7727 227.139 65.7877 227.019 65.7877C226.629 65.7877 226.494 65.5927 226.494 65.0227C226.494 63.8677 226.554 62.7277 226.554 61.5727C226.554 60.8827 226.569 60.0877 226.029 59.5627C225.519 59.0827 224.634 58.8127 223.599 58.8127C221.604 58.8127 220.404 59.7877 220.359 61.4377H221.604C221.724 60.2977 222.339 59.8627 223.524 59.8627C224.664 59.8627 225.279 60.3127 225.279 61.1377C225.279 62.1877 224.649 62.1427 222.804 62.3677C220.974 62.5927 220.059 63.4027 220.059 64.7827C220.059 66.1327 221.004 66.9727 222.534 66.9727C223.734 66.9727 224.574 66.5977 225.339 65.7427C225.354 66.4777 225.744 66.8827 226.464 66.8827C226.749 66.8827 227.064 66.8377 227.334 66.7327V65.7427ZM225.279 62.7427V64.1527C225.279 65.1427 224.124 65.9677 222.924 65.9677C221.964 65.9677 221.379 65.4727 221.379 64.6777C221.379 63.4327 222.639 63.3277 223.569 63.2077C224.139 63.1327 224.799 63.1027 225.279 62.7427ZM236.036 69.2227V65.6377H235.031V59.0227H229.511V60.6727C229.511 62.6227 228.986 64.7827 228.536 65.6377H227.696V69.2227H228.911V66.7627H234.821V69.2227H236.036ZM233.756 65.6377H229.856C230.276 64.8127 230.756 62.7277 230.756 60.7927V60.1477H233.756V65.6377ZM240.539 58.7977C238.199 58.7977 236.744 60.3727 236.744 62.9227C236.744 65.4727 238.154 67.0027 240.524 67.0027C242.879 67.0027 244.244 65.4727 244.244 62.8477C244.244 60.2827 242.879 58.7977 240.539 58.7977ZM240.509 59.8627C242.009 59.8627 242.939 61.0327 242.939 62.8777C242.939 64.7827 242.039 65.9227 240.539 65.9227C238.979 65.9227 238.064 64.7977 238.064 62.8927C238.064 61.0477 239.009 59.8627 240.509 59.8627ZM247.457 56.0827H246.047V59.3527L246.392 64.1077H247.082L247.457 59.3527V56.0827ZM247.532 65.2477H245.957V66.7627H247.532V65.2477Z" fill="#EE7601"/>
<rect y="61.6949" width="100.658" height="1.18644" fill="#EE7601"/>
<defs>
<clipPath id="clip0">
<rect width="270" height="43.8983" fill="white"/>
</clipPath>
</defs>
</svg>
