<svg width="102" height="17" viewBox="0 0 102 17" fill="none" xmlns="http://www.w3.org/2000/svg">
<g clip-path="url(#clip0)">
<path d="M78.9526 9.00325C78.9526 11.1511 79.8746 13.0884 81.2361 14.3939C82.7033 15.8044 84.7358 16.5838 86.8939 16.5838C89.1361 16.5838 91.1475 15.7623 92.5727 14.3939C93.9342 13.0884 94.8563 11.1511 94.8563 9.00325C94.8563 6.85541 93.9342 4.91841 92.5727 3.61262C91.1475 2.24415 89.1361 1.42269 86.8939 1.42269C84.7358 1.42269 82.7033 2.20205 81.2361 3.61262C79.8746 4.91841 78.9526 6.85541 78.9526 9.00325ZM5.0495 1.63352H0V16.3733H4.42111C6.66337 16.3733 8.31825 16.3312 9.9949 15.573C12.6349 14.373 14.2693 11.8038 14.2693 8.91904C14.2693 6.18211 12.7816 3.90765 10.7488 2.72816C9.15674 1.80192 7.29176 1.63352 5.0495 1.63352ZM67.6583 1.63352H62.8183V16.3733H67.0299C69.2722 16.3733 70.9274 16.3312 72.6037 15.573C75.2438 14.373 76.8781 11.8038 76.8781 8.91904C76.8781 6.18211 75.3904 3.90765 73.358 2.72816C71.7659 1.80192 69.9009 1.63352 67.6583 1.63352ZM57.182 16.3733H61.5823L56.029 1.63352H50.9171L45.3641 16.3733H49.7644L50.6022 13.7832H56.3439L57.182 16.3733ZM16.7002 16.3733H28.35V12.7304H20.786V10.6459H26.4642V7.21344H20.786V5.27612H28.1405V1.63352H16.7002V16.3733ZM31.032 16.3733H35.1181V10.6459H36.5424L39.9585 16.3733H44.7357L39.8742 8.77217L44.6515 1.63352H39.7698L36.3124 7.21344H35.1181V1.63352H31.032V16.3733ZM83.1639 9.00325C83.1639 7.97159 83.5835 6.98204 84.2535 6.26599C84.9453 5.52873 85.8674 5.14981 86.915 5.14981C87.9623 5.14981 88.9055 5.52873 89.5967 6.26599C90.2468 6.96083 90.6651 7.92917 90.6651 9.02478C90.6651 10.1615 90.2046 11.109 89.5967 11.7408C88.9055 12.4565 87.9837 12.8567 86.9355 12.8567C85.8674 12.8567 84.9245 12.4565 84.2535 11.7408C83.5623 11.0039 83.1639 10.0137 83.1639 9.00325ZM4.0861 12.7304V5.27612H4.44225C5.99239 5.27612 7.2498 5.31822 8.27693 5.84465C9.2826 6.35019 10.0782 7.29764 10.0782 9.06624C10.0782 10.7718 9.3457 11.7193 8.29743 12.2252C7.31257 12.7092 6.09712 12.7304 4.67253 12.7304H4.0861ZM66.9044 12.7304V5.27612H67.0514C68.6015 5.27612 69.8586 5.31822 70.8857 5.84465C71.8911 6.35019 72.6873 7.29764 72.6873 9.06624C72.6873 10.7718 71.9542 11.7193 70.9062 12.2252C69.9214 12.7092 68.7063 12.7304 67.2813 12.7304H66.9044ZM53.3477 5.27612H53.5991L55.2335 10.3511H51.713L53.3477 5.27612Z" fill="#231F20"/>
<path d="M99.4663 0C98.0667 0 96.9326 1.15346 96.9326 2.5756C96.9326 3.99838 98.0667 5.15119 99.4663 5.15119C100.866 5.15119 102 3.99838 102 2.5756C102 1.15346 100.866 0 99.4663 0ZM99.4663 0.577533C100.55 0.577533 101.432 1.4742 101.432 2.5756C101.432 3.67731 100.55 4.57366 99.4663 4.57366C98.3825 4.57366 97.5007 3.67731 97.5007 2.5756C97.5007 1.4742 98.3825 0.577533 99.4663 0.577533Z" fill="#231F20"/>
<path d="M99.4875 1.65916H99.0859V2.2984H99.5102C99.7482 2.29679 99.9106 2.19331 99.9157 1.98569C99.9199 1.82371 99.8084 1.64663 99.4875 1.65916ZM100.609 3.91755H100.05L99.343 2.78305H99.0859V3.91755C99.0859 3.91755 98.7659 3.91883 98.5558 3.91755C98.5558 3.91755 98.5561 1.39434 98.5561 1.16905L99.5025 1.17033C100.215 1.17033 100.442 1.58203 100.442 1.98665C100.442 2.36718 100.241 2.67603 99.9151 2.78337L100.609 3.91755Z" fill="#231F20"/>
<path d="M4.08578 13.257H4.67221C6.16022 13.257 7.41731 13.2355 8.52803 12.6885C9.74348 12.1199 10.6025 11.0037 10.6025 9.06642C10.6025 7.0661 9.7012 5.99235 8.50657 5.38139C7.35453 4.79197 6.05517 4.74987 4.44225 4.74987H0V5.80305H4.44225C5.92962 5.80305 7.14507 5.84451 8.04601 6.30827C8.88418 6.72897 9.55484 7.52922 9.55484 9.06642C9.55484 10.4773 8.98891 11.3197 8.06683 11.7619C7.20784 12.1829 6.03467 12.2041 4.67221 12.2041H4.08578V13.257Z" fill="#F47C20"/>
</g>
<defs>
<clipPath id="clip0">
<rect width="102" height="16.5838" fill="white"/>
</clipPath>
</defs>
</svg>
