<svg width="141" height="23" viewBox="0 0 141 23" fill="none" xmlns="http://www.w3.org/2000/svg">
<path d="M109.14 12.4866C109.14 15.4654 110.415 18.1522 112.297 19.9628C114.325 21.9191 117.135 23 120.118 23C123.218 23 125.998 21.8607 127.968 19.9628C129.85 18.1522 131.125 15.4654 131.125 12.4866C131.125 9.50774 129.85 6.82133 127.968 5.01032C125.998 3.1124 123.218 1.97312 120.118 1.97312C117.135 1.97312 114.325 3.05401 112.297 5.01032C110.415 6.82133 109.14 9.50774 109.14 12.4866ZM6.98019 2.26552H0V22.708H6.11154C9.21113 22.708 11.4988 22.6497 13.8165 21.5982C17.466 19.9338 19.7252 16.3707 19.7252 12.3698C19.7252 8.57394 17.6687 5.4195 14.8587 3.78367C12.6578 2.49908 10.0798 2.26552 6.98019 2.26552ZM93.5277 2.26552H86.837V22.708H92.659C95.7586 22.708 98.0467 22.6497 100.364 21.5982C104.013 19.9338 106.273 16.3707 106.273 12.3698C106.273 8.57394 104.216 5.4195 101.407 3.78367C99.2057 2.49908 96.6277 2.26552 93.5277 2.26552ZM79.0457 22.708H85.1285L77.4519 2.26552H70.3854L62.7092 22.708H68.792L69.9502 19.1159H77.8871L79.0457 22.708ZM23.0856 22.708H39.1897V17.6557H28.7336V14.7647H36.5829V10.0043H28.7336V7.31742H38.9002V2.26552H23.0856V22.708ZM42.8972 22.708H48.5456V14.7647H50.5145L55.2367 22.708H61.8406L55.1203 12.1661L61.7241 2.26552H54.9759L50.1966 10.0043H48.5456V2.26552H42.8972V22.708ZM114.962 12.4866C114.962 11.0558 115.542 9.68336 116.468 8.69027C117.424 7.66777 118.699 7.14225 120.147 7.14225C121.595 7.14225 122.899 7.66777 123.854 8.69027C124.753 9.65394 125.331 10.9969 125.331 12.5164C125.331 14.093 124.695 15.407 123.854 16.2833C122.899 17.2759 121.625 17.8309 120.176 17.8309C118.699 17.8309 117.396 17.2759 116.468 16.2833C115.513 15.2612 114.962 13.8879 114.962 12.4866ZM5.64843 17.6557V7.31742H6.14075C8.2836 7.31742 10.0218 7.37581 11.4416 8.10592C12.8318 8.80705 13.9316 10.1211 13.9316 12.5739C13.9316 14.9394 12.9191 16.2534 11.47 16.955C10.1086 17.6263 8.42838 17.6557 6.45909 17.6557H5.64843ZM92.4855 17.6557V7.31742H92.6887C94.8315 7.31742 96.5693 7.37581 97.9891 8.10592C99.3789 8.80705 100.48 10.1211 100.48 12.5739C100.48 14.9394 99.4661 16.2534 98.0174 16.955C96.656 17.6263 94.9763 17.6557 93.0066 17.6557H92.4855ZM73.7453 7.31742H74.0928L76.3521 14.356H71.4856L73.7453 7.31742Z" fill="#231F20"/>
<path d="M137.498 0C135.563 0 133.995 1.59973 133.995 3.57208C133.995 5.54533 135.563 7.14417 137.498 7.14417C139.432 7.14417 141 5.54533 141 3.57208C141 1.59973 139.432 0 137.498 0ZM137.498 0.800977C138.995 0.800977 140.215 2.04456 140.215 3.57208C140.215 5.10005 138.995 6.34319 137.498 6.34319C135.999 6.34319 134.78 5.10005 134.78 3.57208C134.78 2.04456 135.999 0.800977 137.498 0.800977Z" fill="#231F20"/>
<path d="M137.527 2.30108H136.972V3.18764H137.558C137.887 3.18541 138.112 3.04189 138.119 2.75394C138.125 2.5293 137.97 2.2837 137.527 2.30108ZM139.078 5.43323H138.304L137.327 3.8598H136.972V5.43323C136.972 5.43323 136.529 5.43501 136.239 5.43323C136.239 5.43323 136.239 1.9338 136.239 1.62134L137.548 1.62313C138.532 1.62313 138.846 2.19411 138.846 2.75528C138.846 3.28303 138.568 3.71137 138.118 3.86025L139.078 5.43323Z" fill="#231F20"/>
</svg>
