<svg width="35" height="30" fill="none" xmlns="http://www.w3.org/2000/svg"><path d="M0 6.667h28V10H0V6.667zm3.5 6.666h22.75v3.334H3.5v-3.334zM29.75 0H35v3.333h-5.25V0zM7 20h17.5l-1.75 3.333H7V20z" fill="#B0B0B0"/><path d="M26.549 2.755c.335-1.813 2.15-3.023 4.054-2.704l-3.798 20.517c-.336 1.813-2.151 3.024-4.055 2.704l3.799-20.517zM15.75 27.5c0 1.38-1.175 2.5-2.625 2.5S10.5 28.88 10.5 27.5s1.175-2.5 2.625-2.5 2.625 1.12 2.625 2.5zm8.75 0c0 1.38-1.175 2.5-2.625 2.5s-2.625-1.12-2.625-2.5 1.175-2.5 2.625-2.5 2.625 1.12 2.625 2.5z" fill="#B0B0B0"/></svg>