<svg width="102" height="17" fill="none" xmlns="http://www.w3.org/2000/svg"><g clip-path="url(#clip0)"><path d="M78.953 9.003a7.51 7.51 0 002.283 5.39c1.467 1.411 3.5 2.19 5.658 2.19 2.242 0 4.253-.82 5.679-2.19a7.51 7.51 0 002.283-5.39 7.511 7.511 0 00-2.283-5.39c-1.425-1.369-3.437-2.19-5.68-2.19-2.157 0-4.19.779-5.657 2.19a7.511 7.511 0 00-2.283 5.39zM5.049 1.633H0v14.74h4.421c2.242 0 3.897-.042 5.574-.8 2.64-1.2 4.274-3.77 4.274-6.654a7.132 7.132 0 00-3.52-6.19c-1.592-.927-3.457-1.095-5.7-1.095zm62.61 0h-4.84v14.74h4.21c2.243 0 3.898-.042 5.575-.8 2.64-1.2 4.274-3.77 4.274-6.654a7.133 7.133 0 00-3.52-6.19c-1.592-.927-3.457-1.095-5.7-1.095zm-10.477 14.74h4.4L56.03 1.633h-5.112l-5.553 14.74h4.4l.838-2.59h5.742l.838 2.59zm-40.482 0h11.65V12.73h-7.564v-2.084h5.678V7.213h-5.678V5.276h7.354V1.634H16.7v14.74zm14.332 0h4.086v-5.727h1.424l3.416 5.727h4.778l-4.862-7.6 4.777-7.14H39.77l-3.458 5.58h-1.194v-5.58h-4.086v14.74zm52.132-7.37c0-1.031.42-2.021 1.09-2.737.691-.737 1.613-1.116 2.661-1.116 1.047 0 1.99.379 2.682 1.116a4.021 4.021 0 011.068 2.759 3.91 3.91 0 01-1.068 2.716 3.627 3.627 0 01-2.661 1.116c-1.069 0-2.012-.4-2.683-1.116a4.032 4.032 0 01-1.09-2.738zM4.086 12.73V5.276h.356c1.55 0 2.808.042 3.835.569 1.006.505 1.801 1.453 1.801 3.221 0 1.706-.732 2.653-1.78 3.16-.985.483-2.2.504-3.625.504h-.587zm62.818 0V5.276h.147c1.55 0 2.808.042 3.835.569 1.005.505 1.801 1.453 1.801 3.221 0 1.706-.733 2.653-1.78 3.16-.986.483-2.2.504-3.626.504h-.377zM53.348 5.276h.251l1.635 5.075h-3.521l1.635-5.075zM99.466 0c-1.4 0-2.533 1.153-2.533 2.576 0 1.422 1.134 2.575 2.533 2.575 1.4 0 2.534-1.153 2.534-2.575C102 1.153 100.866 0 99.466 0zm0 .578c1.084 0 1.966.896 1.966 1.998 0 1.101-.882 1.998-1.966 1.998s-1.965-.897-1.965-1.998c0-1.102.881-1.998 1.965-1.998z" fill="#231F20"/><path d="M99.487 1.66h-.401v.638h.424c.238-.001.4-.105.406-.312.004-.162-.108-.34-.428-.327zm1.122 2.258h-.559l-.707-1.135h-.257v1.135h-.53V1.169l.947.001c.712 0 .939.412.939.817 0 .38-.201.689-.527.796l.694 1.135z" fill="#231F20"/><path d="M4.086 13.257h.586c1.488 0 2.745-.021 3.856-.569 1.215-.568 2.074-1.684 2.074-3.622 0-2-.9-3.074-2.095-3.685-1.152-.589-2.452-.631-4.065-.631H0v1.053h4.442c1.488 0 2.703.042 3.604.505.838.421 1.509 1.221 1.509 2.758 0 1.411-.566 2.254-1.488 2.696-.86.42-2.032.442-3.395.442h-.586v1.053z" fill="#F47C20"/></g><defs><clipPath id="clip0"><path fill="#fff" d="M0 0h102v16.584H0z"/></clipPath></defs></svg>