<svg width="270" height="70" fill="none" xmlns="http://www.w3.org/2000/svg"><g clip-path="url(#clip0)"><path d="M208.992 23.832c0 5.686 2.441 10.814 6.045 14.27 3.884 3.733 9.264 5.796 14.976 5.796 5.936 0 11.26-2.174 15.032-5.797 3.604-3.455 6.045-8.583 6.045-14.269 0-5.685-2.441-10.813-6.045-14.27-3.772-3.622-9.096-5.796-15.032-5.796-5.712 0-11.092 2.063-14.976 5.797-3.604 3.456-6.045 8.584-6.045 14.27zM13.366 4.324H0v39.017h11.703c5.935 0 10.316-.111 14.754-2.118 6.989-3.177 11.315-9.978 11.315-17.614 0-7.245-3.938-13.265-9.32-16.387-4.214-2.452-9.15-2.898-15.086-2.898zm165.73 0h-12.812v39.017h11.148c5.936 0 10.317-.111 14.754-2.118 6.989-3.177 11.315-9.978 11.315-17.614 0-7.245-3.938-13.265-9.318-16.387-4.215-2.452-9.151-2.898-15.087-2.898zm-27.732 39.017h11.648l-14.7-39.017h-13.531l-14.7 39.017h11.648l2.218-6.856h15.199l2.218 6.856zm-107.157 0h30.837v-9.643H55.022V28.18h15.03v-9.086h-15.03v-5.128H74.49V4.324H44.207v39.017zm37.937 0H92.96v-15.16h3.77l9.042 15.16h12.646l-12.869-20.12 12.646-18.897h-12.922l-9.152 14.77H92.96V4.324H82.144v39.017zM220.14 23.832c0-2.73 1.11-5.35 2.884-7.246 1.831-1.951 4.272-2.954 7.045-2.954 2.772 0 5.269 1.003 7.099 2.954 1.721 1.84 2.828 4.403 2.828 7.303 0 3.01-1.219 5.517-2.828 7.19-1.83 1.894-4.27 2.953-7.045 2.953-2.827 0-5.323-1.059-7.099-2.953-1.83-1.951-2.884-4.572-2.884-7.247zM10.816 33.698V13.966h.943c4.103 0 7.432.112 10.15 1.505 2.663 1.338 4.768 3.846 4.768 8.528 0 4.515-1.938 7.023-4.713 8.362-2.607 1.28-5.825 1.337-9.595 1.337h-1.553zm166.284 0V13.966h.389c4.103 0 7.431.112 10.15 1.505 2.661 1.338 4.769 3.846 4.769 8.528 0 4.515-1.941 7.023-4.715 8.362-2.607 1.28-5.824 1.337-9.595 1.337h-.998zm-35.886-19.732h.666l4.326 13.434h-9.319l4.327-13.434zM263.293 0c-3.705 0-6.707 3.053-6.707 6.818 0 3.766 3.002 6.818 6.707 6.818S270 10.584 270 6.818C270 3.053 266.998 0 263.293 0zm0 1.529c2.868 0 5.203 2.373 5.203 5.289 0 2.916-2.335 5.289-5.203 5.289-2.869 0-5.203-2.373-5.203-5.29 0-2.915 2.334-5.288 5.203-5.288z" fill="#231F20"/><path d="M263.349 4.392h-1.063v1.692h1.123c.63-.004 1.06-.278 1.074-.828.011-.429-.284-.897-1.134-.864zm2.97 5.978h-1.481l-1.871-3.003h-.681v3.003s-.847.003-1.403 0l.001-7.275 2.505.003c1.885 0 2.486 1.09 2.486 2.16 0 1.008-.532 1.826-1.394 2.11l1.838 3.002z" fill="#231F20"/><path d="M10.816 35.092h1.552c3.939 0 7.266-.057 10.207-1.505 3.217-1.505 5.49-4.46 5.49-9.588 0-5.295-2.385-8.137-5.547-9.754-3.05-1.56-6.49-1.672-10.759-1.672H0v2.788h11.76c3.937 0 7.154.11 9.539 1.337 2.218 1.114 3.994 3.232 3.994 7.301 0 3.735-1.498 5.965-3.94 7.135-2.273 1.115-5.378 1.171-8.985 1.171h-1.552v2.787z" fill="#F47C20"/></g><path d="M133.128 62.728h-1.41c-.225 1.995-1.335 3.075-3.15 3.075-2.22 0-3.585-1.665-3.585-4.38 0-2.25 1.065-4.365 3.6-4.365 1.59 0 2.73.84 3.045 2.235h1.41c-.21-2.28-2.325-3.45-4.425-3.45-3.285 0-5.055 2.535-5.055 5.595 0 3.42 1.905 5.58 4.95 5.58 2.64 0 4.38-1.575 4.62-4.29zm8.005-3.705h-5.265l-.135 4.68c-.045 1.68-.615 2.13-1.125 2.13-.165 0-.51-.015-.675-.105v1.035c.165.075.54.165.915.165 1.08 0 2.07-.825 2.145-3.36l.105-3.42h2.76v6.615h1.275v-7.74zm8.29 0h-1.335l-2.175 6.165-2.295-6.165h-1.44l3.075 7.695-.6 1.41c-.15.36-.48.645-.9.645-.225 0-.42-.045-.825-.165v1.14c.315.075.615.135.945.135 1.38 0 1.815-1.035 2.235-2.13l3.315-8.73zm4.365 3.99l.96.975v2.775h1.275v-2.775l.96-.975 2.655 3.75h1.575l-3.39-4.56 2.955-3.18h-1.575l-3.15 3.555h-.03v-3.555h-1.275v3.555h-.03l-3.15-3.555h-1.575l2.955 3.18-3.39 4.56h1.575l2.655-3.75zm10.04 3.75l3.48-6.315h.03v6.315h1.275v-7.74h-1.635l-3.48 6.315h-.03v-6.315h-1.275v7.74h1.635zm12.625-6.615v-1.125h-6.825v1.125h2.775v6.615h1.275v-6.615h2.775zm1.504 4.95h-1.665v1.665h.825c-.015.825-.255 1.275-.825 1.47v.75c1.485-.39 1.665-1.53 1.665-2.865v-1.02zm13.329 1.665l-3.525-4.695 3.12-3.045h-1.71l-3.54 3.69v-3.69h-1.275v7.74h1.275v-2.625l1.215-1.185 2.82 3.81h1.62zm7.704-1.02c-.135.03-.195.045-.315.045-.39 0-.525-.195-.525-.765 0-1.155.06-2.295.06-3.45 0-.69.015-1.485-.525-2.01-.51-.48-1.395-.75-2.43-.75-1.995 0-3.195.975-3.24 2.625h1.245c.12-1.14.735-1.575 1.92-1.575 1.14 0 1.755.45 1.755 1.275 0 1.05-.63 1.005-2.475 1.23-1.83.225-2.745 1.035-2.745 2.415 0 1.35.945 2.19 2.475 2.19 1.2 0 2.04-.375 2.805-1.23.015.735.405 1.14 1.125 1.14.285 0 .6-.045.87-.15v-.99zm-2.055-3v1.41c0 .99-1.155 1.815-2.355 1.815-.96 0-1.545-.495-1.545-1.29 0-1.245 1.26-1.35 2.19-1.47.57-.075 1.23-.105 1.71-.465zm10.186 4.02l-3.525-4.695 3.12-3.045h-1.71l-3.54 3.69v-3.69h-1.275v7.74h1.275v-2.625l1.215-1.185 2.82 3.81h1.62zm6.298 0v-3.54h3.87v3.54h1.275v-7.74h-1.275v3.075h-3.87v-3.075h-1.275v7.74h1.275zm13.915-1.02c-.135.03-.195.045-.315.045-.39 0-.525-.195-.525-.765 0-1.155.06-2.295.06-3.45 0-.69.015-1.485-.525-2.01-.51-.48-1.395-.75-2.43-.75-1.995 0-3.195.975-3.24 2.625h1.245c.12-1.14.735-1.575 1.92-1.575 1.14 0 1.755.45 1.755 1.275 0 1.05-.63 1.005-2.475 1.23-1.83.225-2.745 1.035-2.745 2.415 0 1.35.945 2.19 2.475 2.19 1.2 0 2.04-.375 2.805-1.23.015.735.405 1.14 1.125 1.14.285 0 .6-.045.87-.15v-.99zm-2.055-3v1.41c0 .99-1.155 1.815-2.355 1.815-.96 0-1.545-.495-1.545-1.29 0-1.245 1.26-1.35 2.19-1.47.57-.075 1.23-.105 1.71-.465zm10.757 6.48v-3.585h-1.005v-6.615h-5.52v1.65c0 1.95-.525 4.11-.975 4.965h-.84v3.585h1.215v-2.46h5.91v2.46h1.215zm-2.28-3.585h-3.9c.42-.825.9-2.91.9-4.845v-.645h3v5.49zm6.783-6.84c-2.34 0-3.795 1.575-3.795 4.125s1.41 4.08 3.78 4.08c2.355 0 3.72-1.53 3.72-4.155 0-2.565-1.365-4.05-3.705-4.05zm-.03 1.065c1.5 0 2.43 1.17 2.43 3.015 0 1.905-.9 3.045-2.4 3.045-1.56 0-2.475-1.125-2.475-3.03 0-1.845.945-3.03 2.445-3.03zm6.948-3.78h-1.41v3.27l.345 4.755h.69l.375-4.755v-3.27zm.075 9.165h-1.575v1.515h1.575v-1.515zM0 61.695h100.658v1.186H0z" fill="#EE7601"/><defs><clipPath id="clip0"><path fill="#fff" d="M0 0h270v43.898H0z"/></clipPath></defs></svg>