<svg width="20" height="18" viewBox="0 0 20 18" fill="none" xmlns="http://www.w3.org/2000/svg">
<path d="M0 4H16V6H0V4Z" fill="black"/>
<path d="M2 8H15V10H2V8Z" fill="black"/>
<path d="M17 4.94492e-09H20V2H17V4.94492e-09Z" fill="black"/>
<path d="M4 12H14L13 14H4V12Z" fill="black"/>
<path d="M15.1706 1.65304C15.3624 0.56525 16.3997 -0.161088 17.4875 0.0307189L15.3169 12.3408C15.1251 13.4286 14.0878 14.1549 13 13.9631L15.1706 1.65304Z" fill="black"/>
<path d="M9 16.5C9 17.3284 8.32843 18 7.5 18C6.67157 18 6 17.3284 6 16.5C6 15.6716 6.67157 15 7.5 15C8.32843 15 9 15.6716 9 16.5Z" fill="black"/>
<path d="M14 16.5C14 17.3284 13.3284 18 12.5 18C11.6716 18 11 17.3284 11 16.5C11 15.6716 11.6716 15 12.5 15C13.3284 15 14 15.6716 14 16.5Z" fill="black"/>
</svg>
 