<svg width="141" height="23" fill="none" xmlns="http://www.w3.org/2000/svg"><path d="M109.14 12.487c0 2.978 1.275 5.665 3.157 7.476 2.028 1.956 4.838 3.037 7.821 3.037 3.1 0 5.88-1.14 7.85-3.037a10.434 10.434 0 000-14.953c-1.97-1.898-4.75-3.037-7.85-3.037-2.983 0-5.793 1.081-7.821 3.037a10.434 10.434 0 00-3.157 7.477zM6.98 2.266H0v20.442h6.112c3.1 0 5.387-.058 7.704-1.11 3.65-1.664 5.91-5.227 5.91-9.228 0-3.796-2.057-6.95-4.867-8.586-2.201-1.285-4.78-1.518-7.879-1.518zm86.548 0h-6.691v20.442h5.822c3.1 0 5.388-.058 7.705-1.11 3.649-1.664 5.909-5.227 5.909-9.228 0-3.796-2.057-6.95-4.866-8.586-2.201-1.285-4.78-1.518-7.88-1.518zM79.046 22.708h6.082L77.453 2.266h-7.067L62.71 22.708h6.083l1.158-3.592h7.937l1.159 3.592zm-55.96 0H39.19v-5.052H28.734v-2.891h7.849v-4.76h-7.85V7.316H38.9v-5.05H23.086v20.442zm19.811 0h5.649v-7.943h1.968l4.723 7.943h6.604l-6.72-10.542 6.603-9.9h-6.748l-4.78 7.738h-1.65V2.266h-5.649v20.442zm72.065-10.221c0-1.431.58-2.804 1.506-3.797.956-1.022 2.231-1.548 3.679-1.548s2.752.526 3.707 1.548c.899.964 1.477 2.307 1.477 3.826 0 1.577-.636 2.891-1.477 3.767-.955.993-2.229 1.548-3.678 1.548-1.477 0-2.78-.555-3.708-1.548a5.605 5.605 0 01-1.506-3.796zM5.648 17.656V7.317h.493c2.143 0 3.88.059 5.3.789 1.39.701 2.49 2.015 2.49 4.468 0 2.365-1.012 3.68-2.461 4.381-1.361.671-3.042.7-5.01.7h-.812zm86.838 0V7.317h.203c2.143 0 3.88.059 5.3.789 1.39.701 2.491 2.015 2.491 4.468 0 2.365-1.014 3.68-2.463 4.381-1.361.671-3.04.7-5.01.7h-.522zM73.746 7.317h.347l2.26 7.039h-4.867l2.26-7.039zM137.498 0c-1.935 0-3.503 1.6-3.503 3.572 0 1.973 1.568 3.572 3.503 3.572 1.934 0 3.502-1.599 3.502-3.572C141 1.6 139.432 0 137.498 0zm0 .801c1.497 0 2.717 1.244 2.717 2.771 0 1.528-1.22 2.771-2.717 2.771-1.499 0-2.718-1.243-2.718-2.77 0-1.528 1.219-2.772 2.718-2.772z" fill="#231F20"/><path d="M137.527 2.301h-.555v.887h.586c.329-.003.554-.146.561-.434.006-.225-.149-.47-.592-.453zm1.551 3.132h-.774l-.977-1.573h-.355v1.573s-.443.002-.733 0V1.621l1.309.002c.984 0 1.298.571 1.298 1.132 0 .528-.278.956-.728 1.105l.96 1.573z" fill="#231F20"/></svg>